<svg width="500" height="414" viewBox="0 0 500 414" fill="none" xmlns="http://www.w3.org/2000/svg">
<g clip-path="url(#clip0_269_2146)">
<path d="M376.882 126.319H341.587C335.491 126.319 330.6 131.261 330.6 137.252V145.713C330.6 151.778 335.566 156.645 341.587 156.645H376.882C382.978 156.645 387.869 151.703 387.869 145.713V137.252C387.869 131.186 382.902 126.319 376.882 126.319ZM376.656 144.59C376.656 145.039 376.28 145.488 375.753 145.488H342.791C342.34 145.488 341.888 145.114 341.888 144.59V138.45C341.888 138 342.264 137.551 342.791 137.551H375.753C376.205 137.551 376.656 137.925 376.656 138.45V144.59Z" fill="#F5DA39"/>
<path d="M252.634 43.3545H247.366C244.665 43.3545 242.475 45.5336 242.475 48.2216V70.1608C242.475 72.8488 244.665 75.0279 247.366 75.0279H252.634C255.336 75.0279 257.526 72.8488 257.526 70.1608V48.2216C257.526 45.5336 255.336 43.3545 252.634 43.3545Z" fill="white"/>
<path d="M249.999 53.2385C235.249 53.2385 223.283 41.3329 223.283 26.6569C223.283 11.9808 235.249 0.0751953 249.999 0.0751953C264.749 0.0751953 276.715 11.9808 276.715 26.6569C276.715 41.3329 264.749 53.2385 249.999 53.2385ZM249.999 14.9759C243.527 14.9759 238.334 20.2174 238.334 26.582C238.334 32.9466 243.602 38.1881 249.999 38.1881C256.396 38.1881 261.664 32.9466 261.664 26.582C261.664 20.2174 256.396 14.9759 249.999 14.9759Z" fill="#FF558E"/>
<path d="M92.9416 224.335H88.2005C85.3407 224.335 83.0078 222.013 83.0078 219.168V141.969C83.0078 117.184 103.252 97.0422 128.161 97.0422H175.949C176.551 97.0422 177.078 96.8925 177.604 96.6678C200.557 85.4362 225.241 79.8203 250.979 79.8203C276.716 79.8203 301.325 85.511 324.353 96.6678C324.88 96.8925 325.407 97.0422 326.009 97.0422H371.915C396.825 97.0422 417.069 117.184 417.069 141.969V217.745C417.069 220.591 414.736 222.912 411.876 222.912H407.06C404.275 222.912 402.017 220.666 402.017 217.895V141.969C402.017 125.421 388.547 112.018 371.915 112.018H322.171C321.795 112.018 321.343 111.943 320.967 111.718L320.591 111.494C306.744 104.53 291.993 99.1388 276.566 96.7427C243.077 91.5013 211.093 96.4432 182.045 111.194L180.464 112.018H128.237C111.605 112.018 98.1342 125.421 98.1342 141.969V219.168C98.1342 222.013 95.8013 224.335 92.9416 224.335Z" fill="white"/>
<path d="M138.922 400.447C118.679 400.447 99.8646 390.488 89.4793 374.689C87.8237 372.143 88.6515 368.624 91.4359 367.276L95.7255 365.104C97.9832 363.981 100.768 364.58 102.198 366.677C109.874 378.208 123.796 385.471 138.922 385.471C149.308 385.471 159.091 382.176 166.842 376.111C168.799 374.539 171.734 374.913 173.465 376.71L176.776 380.155C178.959 382.401 178.582 385.92 176.174 387.792C165.789 395.954 152.769 400.372 138.922 400.372V400.447Z" fill="white"/>
<path d="M364.991 402.019C351.595 402.019 338.952 397.826 328.642 390.189C326.234 388.392 325.783 384.872 327.89 382.701L331.201 379.107C332.932 377.235 335.867 376.86 337.899 378.358C345.5 384.049 354.982 387.044 364.991 387.044C380.795 387.044 395.093 379.256 402.544 366.976C403.823 364.88 406.608 364.131 408.865 365.179L413.155 367.126C416.015 368.399 417.068 371.918 415.412 374.614C405.253 391.387 386.063 401.944 364.991 401.944V402.019Z" fill="white"/>
<path d="M251.956 414C231.863 414 212.974 405.614 200.331 391.387C198.299 389.14 198.6 385.696 201.008 383.899L206.05 380.23C207.631 379.032 209.813 379.406 211.093 380.904C220.876 392.285 235.852 399.024 251.881 399.024C267.911 399.024 283.338 392.136 293.046 380.455C294.326 378.957 296.508 378.583 298.088 379.706L301.926 382.401C305.087 384.648 305.539 389.066 302.905 391.911C290.262 405.838 271.673 413.925 251.806 413.925L251.956 414Z" fill="white"/>
<path d="M252.108 372.443C163.832 372.443 88.9529 361.736 60.9577 345.487C58.2485 343.915 57.6465 340.321 59.5279 337.85L62.4628 334.106C64.0432 332.084 66.7524 331.56 68.9348 332.833C90.9096 345.412 158.113 357.468 252.032 357.468C345.952 357.468 417.219 344.664 436.861 331.785C438.893 330.437 441.527 330.736 443.182 332.458L446.569 335.903C448.751 338.149 448.525 341.893 445.891 343.615C420.079 360.687 342.866 372.368 252.032 372.368L252.108 372.443Z" fill="white"/>
<path d="M250 335.977C225.768 335.977 12.5677 335.078 0.752559 304.079L0 301.308V299.062L0.451535 297.265C0.752559 296.292 1.05358 295.468 1.50512 294.719L2.63396 292.997C3.91331 291.2 6.09573 289.403 9.10596 287.681L83.6845 235.491C85.1144 234.517 86.77 233.993 88.5762 233.993H159.392C162.252 233.993 164.585 236.314 164.585 239.16V243.877C164.585 246.722 162.327 248.969 159.467 248.969H93.3173C91.5864 248.969 89.8555 249.493 88.4256 250.541L22.8778 296.366C20.3191 298.164 20.8459 302.057 23.7809 302.956C50.3462 311.417 130.644 320.926 249.925 320.926C369.205 320.926 448.751 311.492 475.843 302.806C478.778 301.833 479.305 297.939 476.746 296.217L411.424 250.541C409.994 249.568 408.263 248.969 406.532 248.969H341.21C338.426 248.969 336.168 246.722 336.168 243.952V239.01C336.168 236.24 338.426 233.993 341.21 233.993H411.273C413.004 233.993 414.735 234.517 416.165 235.566L490.744 287.756C493.754 289.478 496.011 291.275 497.441 293.371L498.119 294.345C498.721 295.393 499.022 296.217 499.323 297.115L499.849 301.159L499.022 304.229C487.282 335.078 274.157 335.977 249.849 335.977H250ZM499.774 298.388L499.925 299.511C499.925 299.511 499.925 298.763 499.774 298.388ZM0.376279 297.864C0.376279 297.864 0.376279 297.864 0.376279 297.939V297.864Z" fill="white"/>
<path d="M180.69 249.493C169.702 229.5 167.746 205.24 176.626 182.402C184.377 162.41 200.557 146.311 220.65 138.599C243.604 129.838 267.986 131.785 288.08 142.717C290.638 144.065 291.316 147.434 289.811 149.83L287.252 153.799C285.747 156.12 282.661 156.794 280.253 155.446C263.321 146.461 242.851 145.338 223.811 153.424C209.362 159.564 197.622 171.32 191.526 185.697C183.474 204.641 184.678 224.933 193.709 241.706C194.988 244.102 194.386 247.022 192.053 248.519L188.065 251.065C185.581 252.638 182.119 251.889 180.69 249.343V249.493Z" fill="white"/>
<path d="M249.849 290.825C235.099 290.825 220.951 286.857 208.534 279.219C206.05 277.722 205.448 274.277 207.179 271.956L209.888 268.137C211.469 265.891 214.554 265.367 216.887 266.789C227.122 272.929 238.862 276.149 250.827 275.85C286.122 275.325 314.419 246.273 313.892 211.155C313.741 200.672 310.957 190.414 305.915 181.279C304.56 178.883 305.162 175.888 307.495 174.315L311.408 171.694C313.892 170.047 317.278 170.796 318.708 173.267C325.255 184.723 328.792 197.527 328.943 210.781C329.62 254.21 294.702 290.002 251.053 290.675C250.602 290.675 250.225 290.675 249.774 290.675L249.849 290.825Z" fill="white"/>
<path d="M250.076 254.286C227.499 254.286 209.137 236.015 209.137 213.552C209.137 206.364 211.093 199.25 214.706 193.035L224.414 198.726C221.78 203.219 220.35 208.31 220.35 213.552C220.35 229.8 233.67 243.054 250.001 243.054C266.331 243.054 279.651 229.8 279.651 213.552C279.651 197.303 266.331 184.05 250.001 184.05C246.915 184.05 243.83 184.499 240.895 185.473L237.433 174.765C241.497 173.492 245.711 172.818 250.001 172.818C272.577 172.818 290.94 191.089 290.94 213.552C290.94 236.015 272.577 254.286 250.001 254.286H250.076Z" fill="#2CD3F4"/>
<path d="M229.832 205.839C219.146 205.839 210.416 197.153 210.416 186.521C210.416 175.888 219.146 167.202 229.832 167.202C240.518 167.202 249.248 175.888 249.248 186.521C249.248 197.153 240.518 205.839 229.832 205.839ZM229.832 178.509C225.392 178.509 221.704 182.103 221.704 186.596C221.704 191.088 225.317 194.682 229.832 194.682C234.347 194.682 237.96 191.088 237.96 186.596C237.96 182.103 234.347 178.509 229.832 178.509Z" fill="white"/>
</g>
<defs>
<clipPath id="clip0_269_2146">
<rect width="500" height="414" fill="white"/>
</clipPath>
</defs>
</svg>
