<svg width="685" height="146" viewBox="0 0 685 146" fill="none" xmlns="http://www.w3.org/2000/svg">
<path d="M83.4836 89.2449C81.4124 88.7041 79.5464 88.4803 77.2512 88.0326L63.0325 85.1977C55.5313 83.7429 48.8511 82.7917 42.936 82.0457C42.6561 82.0084 42.4882 81.7472 42.5255 81.4675C43.813 73.69 44.2049 68.5237 45.5857 55.9716C46.3507 51.1596 43.1786 46.4596 38.0285 46.4596L22.2797 46.3477C17.9133 46.3477 14.5919 49.6675 14.7412 53.8267C14.8718 57.7621 18.3798 60.7835 22.3357 60.7835H29.8929C30.2661 60.7835 30.546 61.1192 30.5086 61.4923C29.2958 71.6384 29.5383 70.2209 27.8216 81.1691L25.1533 94.4299C26.7207 94.4859 38.551 95.6982 38.551 95.6982C43.9063 96.2391 51.4635 97.6565 59.3193 99.1859L73.426 101.928C75.8331 102.375 77.7924 102.804 80.1995 103.345C84.1367 104.222 87.9619 101.704 88.9509 97.8804C89.8279 93.945 87.4208 90.1215 83.4836 89.2449Z" fill="white"/>
<path d="M67.5853 83.4262C66.8015 83.277 66.2977 82.4564 66.503 81.6917C67.1374 79.2671 67.492 77.8496 67.7719 75.8166C68.1077 73.0749 69.7498 68.8225 75.6463 69.3634C79.5835 69.7924 82.6437 73.9515 82.1025 77.8869C81.7293 80.1623 81.2255 82.4564 80.6844 84.6759C80.4978 85.4032 79.7887 85.8509 79.0423 85.7203L67.6039 83.4262H67.5853Z" fill="white"/>
<path d="M73.3508 104.987C74.2092 105.154 74.7316 106.031 74.4518 106.852C72.4738 112.652 70.0667 118.882 66.5587 125.409C64.6927 129.009 59.9905 130.333 56.5011 128.244C53.0117 126.286 52.2467 121.903 53.982 118.397C56.6131 113.025 58.6096 108.586 60.4383 103.7C60.6809 103.047 61.3713 102.655 62.0617 102.786L73.3508 104.968V104.987Z" fill="white"/>
<path d="M180.047 114.741C183.219 118.023 182.79 123.152 179.506 126.547C171.949 134.194 165.399 138.129 157.096 138.241C144.09 138.465 138.511 113.1 132.502 113.771C130.748 113.771 127.315 116.307 123.732 119.833C122.388 121.157 121.306 122.742 120.541 124.477L116.641 133.112C115.111 136.712 110.726 138.465 107.125 136.824C103.412 135.294 101.77 131.023 103.412 127.312L135.674 53.6588C137.316 50.0591 141.571 48.3059 145.191 49.9472C148.904 51.5885 150.546 55.8596 148.904 59.4592L130.991 99.9692C130.841 100.286 131.196 100.585 131.494 100.417C133.472 99.3164 135.152 98.9247 136.756 99.018C146.049 99.5589 153.046 122.947 157.413 123.171C161.35 124.589 166.369 119.459 169.989 115.524C172.62 112.577 177.211 111.924 180.047 114.759V114.741Z" fill="white"/>
<path d="M243.062 102.935V88.9463C243.062 84.3395 247.336 80.8518 251.982 81.9336C255.341 82.7169 257.598 85.8689 257.598 89.3194V103.475C257.598 103.662 257.729 103.83 257.916 103.848C260.696 104.203 265.38 105.042 268.869 105.676C273.254 106.553 275.642 110.153 275.101 113.771C274.56 117.706 271.593 120.765 267.003 120.112C264.82 119.776 259.782 118.471 257.598 118.247" fill="white"/>
<path d="M303.368 125.539C301.838 125.539 300.326 124.775 299.431 123.395C294.449 115.598 291.799 106.553 291.799 97.2831C291.799 70.5003 313.612 48.6973 340.407 48.6973C349.7 48.6973 358.731 51.3457 366.531 56.3255C368.696 57.7057 369.33 60.5966 367.949 62.7601C366.55 64.9236 363.676 65.5578 361.512 64.1776C355.205 60.149 347.909 58.0228 340.407 58.0228C318.743 58.0228 301.129 75.6293 301.129 97.2831C301.129 104.781 303.256 112.073 307.286 118.377C308.667 120.541 308.033 123.432 305.868 124.812C305.085 125.316 304.226 125.539 303.368 125.539Z" fill="#2CD3F4"/>
<path d="M340.24 146C330.089 146 320.386 142.904 312.101 137.011C310.012 135.519 309.508 132.609 311 130.502C312.493 128.394 315.404 127.909 317.513 129.401C324.361 134.288 332.385 136.843 340.856 136.656C362.52 136.321 379.855 118.434 379.519 96.7805C379.407 89.2828 377.168 82.0276 373.044 75.7981C371.626 73.6533 372.204 70.7624 374.369 69.3449C376.515 67.9274 379.407 68.5056 380.825 70.6691C385.938 78.3906 388.718 87.3804 388.849 96.6499C389.259 123.433 367.801 145.572 340.987 145.982C340.725 145.982 340.483 145.982 340.222 145.982L340.24 146Z" fill="#2CD3F4"/>
<path d="M21.608 127.797C9.6844 127.797 0 118.117 0 106.199C0 94.2814 9.6844 84.6016 21.608 84.6016C33.5315 84.6016 43.2159 94.2814 43.2159 106.199C43.2159 118.117 33.5315 127.797 21.608 127.797ZM21.608 99.3358C17.82 99.3358 14.7412 102.413 14.7412 106.199C14.7412 109.986 17.82 113.063 21.608 113.063C25.3959 113.063 28.4747 109.986 28.4747 106.199C28.4747 102.413 25.3959 99.3358 21.608 99.3358Z" fill="#2CD3F4"/>
<path d="M237.202 145.478C225.278 145.478 215.594 135.779 215.594 123.88C215.594 111.981 225.297 102.282 237.202 102.282C249.107 102.282 258.81 111.981 258.81 123.88C258.81 135.779 249.107 145.478 237.202 145.478ZM237.202 115.338C232.481 115.338 228.656 119.18 228.656 123.88C228.656 128.58 232.499 132.422 237.202 132.422C241.904 132.422 245.748 128.599 245.748 123.88C245.748 119.161 241.923 115.338 237.202 115.338Z" fill="#2CD3F4"/>
<path d="M366.273 88.0705C357.969 69.4008 335.204 65.6147 321.396 77.9989C309.827 88.3689 308.857 106.218 319.232 117.782C319.549 118.136 319.885 118.434 320.258 118.695C320.37 118.789 320.519 118.845 320.631 118.919C320.892 119.087 321.135 119.236 321.396 119.367C321.564 119.441 321.732 119.479 321.881 119.535C322.124 119.628 322.366 119.721 322.628 119.777C322.814 119.814 323.001 119.833 323.169 119.852C323.411 119.889 323.654 119.926 323.915 119.926C323.971 119.926 324.027 119.926 324.083 119.926C324.251 119.926 324.419 119.889 324.587 119.889C324.755 119.889 324.923 119.87 325.091 119.852C325.333 119.814 325.576 119.74 325.8 119.684C325.949 119.647 326.117 119.609 326.266 119.553C326.528 119.46 326.77 119.33 327.031 119.199C327.162 119.143 327.274 119.087 327.405 119.012C327.759 118.807 328.114 118.546 328.431 118.266L344.273 104.054C346.904 101.704 347.501 97.6198 345.281 94.8594C342.911 91.9312 338.6 91.5955 335.82 94.0948L326.154 102.767C325.949 102.954 325.595 102.861 325.52 102.581C324.232 97.34 325.781 91.5582 330.092 87.7161C333.096 85.0117 336.977 83.6688 341.007 83.874C345.038 84.0978 348.751 85.8697 351.438 88.8725C355.655 93.5725 356.607 100.38 353.36 106.61C352.614 108.027 351.438 109.165 350.263 110.228C347.594 112.634 347.37 116.756 349.778 119.423C351.065 120.859 352.856 121.586 354.648 121.586C356.196 121.586 357.764 121.045 359.014 119.926C366.739 113.007 370.098 102.506 367.523 91.7634C367.224 90.4951 366.795 89.2455 366.254 88.0518L366.273 88.0705Z" fill="white"/>
<path d="M340.335 44.5949C337.76 44.5949 335.67 42.506 335.67 39.9321V28.2379C335.67 25.6641 337.76 23.5752 340.335 23.5752C342.91 23.5752 345 25.6641 345 28.2379V39.9321C345 42.506 342.91 44.5949 340.335 44.5949Z" fill="white"/>
<path d="M340.333 32.9004C331.264 32.9004 323.875 25.5146 323.875 16.4502C323.875 7.38579 331.264 0 340.333 0C349.401 0 356.791 7.38579 356.791 16.4502C356.791 25.5146 349.401 32.9004 340.333 32.9004ZM340.333 9.3255C336.396 9.3255 333.205 12.5148 333.205 16.4502C333.205 20.3855 336.396 23.5749 340.333 23.5749C344.27 23.5749 347.461 20.3855 347.461 16.4502C347.461 12.5148 344.27 9.3255 340.333 9.3255Z" fill="#FF558E"/>
<path d="M201.916 73.7278H198.968C194.919 73.7278 191.635 70.5571 191.747 66.5098C191.747 62.4626 194.919 59.3105 198.968 59.3105H204.006L218.43 59.4225H225.745C229.682 59.4225 232.966 62.705 232.966 66.6404C232.966 70.5757 229.682 73.8583 225.633 73.8583H216.34L201.916 73.7464V73.7278Z" fill="white"/>
<path d="M205.949 56.2699C205.091 56.2699 204.438 55.5239 204.55 54.6659L205.333 48.4925C205.986 44.4452 209.588 41.7221 213.544 42.3749C217.593 42.9158 220.317 46.6274 219.664 50.5627L218.974 55.1322C218.862 55.8223 218.265 56.3445 217.555 56.3445L205.949 56.2513V56.2699Z" fill="white"/>
<path d="M214.867 76.8978C215.726 76.8978 216.379 77.6625 216.248 78.5205L212.33 104.576C211.789 108.511 208.075 111.234 204.138 110.693C200.201 110.041 197.477 106.441 198.018 102.394L201.862 78.0169C201.974 77.3268 202.571 76.8232 203.261 76.8232L214.849 76.9165L214.867 76.8978Z" fill="white"/>
<path d="M268.422 59.9814H246.796C243.064 59.9814 240.041 63.0029 240.041 66.7331V71.9367C240.041 75.6669 243.064 78.6884 246.796 78.6884H268.422C272.154 78.6884 275.177 75.6669 275.177 71.9367V66.7331C275.177 63.0029 272.154 59.9814 268.422 59.9814ZM268.273 71.228C268.273 71.5264 268.031 71.7689 267.732 71.7689H247.505C247.206 71.7689 246.964 71.5264 246.964 71.228V67.4232C246.964 67.1248 247.206 66.8823 247.505 66.8823H267.732C268.031 66.8823 268.273 67.1248 268.273 67.4232V71.228Z" fill="#F5DA39"/>
<path d="M445.065 60.9146C445.868 60.9146 446.539 60.2618 446.539 59.4412V49.9665C446.539 46.1803 442.845 42.8418 438.628 42.8418C433.776 42.8418 430.529 46.516 430.529 49.9665V59.4412C430.529 60.2432 431.182 60.9146 432.003 60.9146H445.084H445.065Z" fill="white"/>
<path d="M444.153 83.6309C444.992 83.6309 445.664 84.3582 445.627 85.1975C444.619 103.793 441.914 119.683 437.193 134.884C436.278 138.054 433.535 140.087 430.027 140.087C424.448 140.087 421.537 136.413 421.537 132.776C421.537 132.012 421.686 131.415 421.798 131.023C421.798 130.967 421.873 130.725 421.892 130.669C426.053 117.147 428.572 102.189 429.598 85.0483C429.654 84.265 430.289 83.6495 431.072 83.6495H444.153V83.6309Z" fill="white"/>
<path d="M444.15 64.085H483.429C489.419 64.085 494.27 68.9342 494.27 74.9212V99.3353C494.27 115.357 487.459 125.857 474.043 130.576C473.558 130.781 472.681 131.061 471.505 131.061C467.325 131.061 463.799 127.405 463.799 123.059C463.799 120.001 465.217 117.539 467.699 116.308C474.323 113.268 478.353 109.351 478.353 99.0369V81.449C478.353 80.6471 477.7 79.9943 476.898 79.9943H415.862C412.391 79.9943 408.641 76.9355 408.641 71.993C408.641 67.0505 412.373 64.085 415.862 64.085H444.15Z" fill="white"/>
<path d="M569.137 96.1641C569.828 96.8169 570.966 96.6304 571.395 95.7725C576.116 86.391 579.045 75.7972 580.109 64.215L581.023 54.1994C581.341 50.749 578.598 46.7203 573.616 46.2727C568.633 45.8251 565.293 49.2755 564.976 52.726L564.08 62.555C563.315 70.9853 561.487 78.5576 558.669 85.1414C558.427 85.6823 558.557 86.3164 559.005 86.7267L569.119 96.1641H569.137Z" fill="white"/>
<path d="M557.099 119.441C557.658 119.982 557.696 120.896 557.173 121.474C545.53 134.287 533.326 139.565 514.013 140.237C513.864 140.237 513.715 140.237 513.565 140.237L513.174 140.199C508.639 139.789 505.99 135.238 506.344 131.247C506.736 126.976 510.039 124.421 513.024 124.421C528.437 123.731 536.871 120.224 545.66 110.526C546.22 109.91 547.153 109.873 547.75 110.432L557.099 119.441Z" fill="white"/>
<path d="M620.562 65.2794H675.067C678.519 65.2794 681.318 61.6984 681.318 57.2781C681.318 52.8578 678.5 49.3701 675.067 49.3701H620.562C617.11 49.3701 614.311 52.9138 614.311 57.2781C614.311 61.6425 617.128 65.2794 620.562 65.2794Z" fill="white"/>
<path d="M674.191 73.7832H618.398C614.517 73.7832 611.363 77.3269 611.363 81.6912C611.363 86.0556 614.517 89.5992 618.398 89.5992H667.175C667.398 89.5992 667.566 89.7858 667.566 90.0096C666.223 111.924 655.344 120.802 629.351 121.548C625.545 121.548 622.317 125.167 622.317 129.456C622.317 133.746 625.451 137.364 629.445 137.364C629.463 137.364 629.501 137.364 629.519 137.364C674.75 136.469 684.248 109.481 684.248 86.9881V83.9666C684.248 78.0916 680.012 73.8205 674.191 73.8205V73.7832Z" fill="white"/>
<path d="M576.021 128.095C574.323 127.945 572.644 127.237 571.319 125.968L531.592 88.4986C528.401 85.4958 528.252 80.4787 531.256 77.2894C534.261 74.1 539.28 73.9508 542.471 76.9536L582.197 114.423C585.388 117.426 585.538 122.443 582.533 125.633C580.798 127.479 578.372 128.3 576.04 128.095H576.021Z" fill="white"/>
</svg>
